PathFileType	4	(X/Y/Z)	D:\TRACE\spotREDO_2-26-24\spot_justBody_Motion_2_8-platform.trc
DataRate	CameraRate	NumFrames	NumMarkers	Units	OrigDataRate	OrigDataStartFrame	OrigNumFrames
100.00	100.00	      36	5	mm	100.00	3501	      7000
Frame#	Time	Left_Front			Right_Front			Left_Aft			Right_Aft			Post			
		X1	Y1	Z1	X2	Y2	Z2	X3	Y3	Z3	X4	Y4	Z4	X5	Y5	Z5	

3501	35.000	-727.26947	-58.27262	-587.08319	687.48645	-42.51289	-503.06964	-799.28308	59.16592	626.00580	771.24219	66.65599	629.88562	-17.28430	529.31262	-1048.92346	
3502	35.010	-726.63055	-58.08599	-587.06396	688.29053	-41.98901	-502.91098	-798.43823	58.74529	626.05103	771.87006	66.32892	630.01971	-16.37600	529.89917	-1048.66248	
3503	35.020	-725.60077	-57.89679	-586.96582	689.40112	-41.90057	-502.86246	-797.45044	58.30984	626.21527	772.79163	65.98746	629.99176	-15.65593	530.41455	-1048.40479	
3504	35.030	-724.66626	-57.45648	-586.97040	690.14368	-41.58323	-502.75833	-796.68176	57.95977	626.30450	773.58276	65.69043	630.11298	-14.30871	531.09363	-1047.67017	
3505	35.040	-724.01355	-56.97190	-586.84119	690.77087	-41.40290	-502.71320	-795.91156	57.70296	626.28033	774.75122	65.26606	630.25568	-14.02912	531.62494	-1047.62854	
3506	35.050	-723.22046	-56.43353	-586.80145	692.19904	-40.73537	-502.52023	-794.95673	57.43096	626.58435	775.49353	65.07420	630.28625	-13.07709	532.42145	-1047.13232	
3507	35.060	-722.22876	-55.91590	-586.78925	692.85040	-40.44827	-502.37381	-794.05896	57.14931	626.79419	776.62634	64.45891	630.72491	-12.03348	533.18286	-1046.35339	
3508	35.070	-721.20502	-55.53486	-586.66559	693.70117	-40.07878	-502.40076	-793.08038	56.40414	626.90295	777.27173	64.15997	630.76660	-11.15242	534.00793	-1045.85596	
3509	35.080	-719.91907	-55.13944	-586.44269	695.02338	-39.64002	-502.08194	-792.02551	55.89719	627.13715	778.37897	63.47496	631.00421	-10.16206	535.00745	-1045.16150	
3510	35.090	-719.29266	-54.66425	-586.47736	695.71399	-39.07899	-502.33459	-791.18591	55.52795	627.36444	779.12646	62.82347	630.94830	-8.92066	535.83789	-1044.07397	
3511	35.100	-718.26044	-54.02991	-586.33551	696.66455	-38.76872	-502.15942	-790.09485	54.75249	627.51965	780.40930	62.43091	631.21545	-8.31375	537.01752	-1044.00317	
3512	35.110	-717.32489	-53.57098	-586.28241	697.38062	-38.01284	-502.15463	-789.25439	54.21946	627.74017	781.34363	62.03150	631.54498	-7.38499	537.81079	-1043.15295	
3513	35.120	-716.33063	-52.88906	-586.10791	698.75385	-37.44010	-501.93982	-788.27820	53.79391	627.80219	782.03253	61.41930	631.77203	-6.38918	538.99860	-1042.46631	
3514	35.130	-715.34149	-52.10220	-585.98724	699.33801	-36.88398	-501.93655	-787.08850	53.03703	628.20471	783.22382	60.70676	631.94397	-5.30217	540.19293	-1041.93921	
3515	35.140	-714.39813	-51.31557	-586.06201	700.58228	-36.22601	-501.84418	-786.19116	52.45847	628.30078	784.20575	60.00201	632.27240	-4.29116	541.30878	-1041.10437	
3516	35.150	-713.28900	-50.74255	-585.88733	701.71478	-35.87595	-501.66141	-784.88385	51.46918	628.64026	785.41064	59.24736	632.53839	-2.94500	542.56097	-1040.27673	
3517	35.160	-712.24902	-50.08355	-585.64026	702.66351	-35.12168	-501.39667	-784.02106	51.04184	628.83362	786.26721	58.81090	632.43115	-2.25099	543.82581	-1039.70410	
3518	35.170	-711.30109	-49.39722	-585.47821	703.56494	-34.50988	-501.39209	-782.96265	50.46424	628.93921	787.41028	57.91388	633.01080	-1.11293	545.03766	-1038.68494	
3519	35.180	-710.20673	-48.43800	-585.40198	704.75323	-33.94902	-501.06976	-781.98370	49.31743	629.34827	788.63385	57.20799	633.37378	-0.19132	546.71515	-1037.71619	
3520	35.190	-709.23486	-47.50562	-585.30536	705.76941	-32.91247	-501.12207	-780.77142	48.54148	629.73993	789.24213	56.28239	633.57678	0.60202	547.97711	-1036.66162	
3521	35.200	-708.01746	-46.84721	-585.14685	706.64532	-32.46284	-500.87744	-779.93671	47.80801	629.82910	790.46857	55.40313	633.68890	1.90224	549.34399	-1035.55750	
3522	35.210	-706.87036	-45.97122	-584.84595	708.09387	-31.39721	-500.73322	-778.66333	46.83142	630.20099	791.63715	54.40660	634.03296	3.07488	551.07324	-1034.53906	
3523	35.220	-705.83545	-45.12787	-584.93378	708.86554	-30.81547	-500.53168	-777.71857	45.95904	630.56323	792.59906	53.47961	634.31415	4.46067	552.53772	-1033.30469	
3524	35.230	-704.80646	-44.06351	-584.60376	710.15698	-29.91651	-500.26724	-776.61548	45.05345	630.75525	793.79156	52.77154	634.52429	4.96896	554.11053	-1032.36902	
3525	35.240	-703.72168	-43.20649	-584.57971	711.22363	-29.01126	-500.10168	-775.40436	44.01134	631.30499	795.00519	51.89805	634.96887	6.56931	555.96198	-1031.02539	
3526	35.250	-702.55029	-42.31653	-584.30396	712.19110	-28.05577	-500.07779	-774.53497	43.22906	631.37689	795.90088	50.69241	635.07654	7.12860	557.62793	-1030.07654	
3527	35.260	-701.33234	-41.30110	-584.13116	713.37946	-27.38873	-499.77847	-773.26563	42.12235	631.77679	796.86316	49.69282	635.27588	8.49623	559.36316	-1029.02368	
3528	35.270	-700.28601	-40.22968	-583.82068	714.56342	-26.56463	-499.45596	-772.12683	41.09134	632.19556	798.20520	48.97931	635.81970	9.47169	561.05676	-1027.96692	
3529	35.280	-699.18610	-39.35320	-583.57855	715.49475	-25.55046	-499.32388	-771.05103	40.04755	632.46844	799.35175	48.01133	636.53809	10.57112	562.90564	-1026.71765	
3530	35.290	-698.08240	-38.06401	-583.43359	717.07813	-24.66423	-498.66473	-769.83746	39.05361	632.81097	800.31506	46.67308	636.64984	11.64410	564.84454	-1025.51428	
3531	35.300	-696.90839	-36.78006	-583.27704	717.87238	-23.68628	-498.83484	-768.77173	37.80573	633.30084	801.41150	45.23367	636.79669	12.58185	566.75623	-1024.09729	
3532	35.310	-695.93793	-35.97095	-583.07532	718.90552	-22.65455	-498.49298	-767.44128	36.84836	633.83490	802.92084	44.30494	637.05151	13.77177	568.75146	-1023.02454	
3533	35.320	-694.89063	-34.74771	-582.74432	720.21619	-21.63590	-498.33737	-766.39996	35.69480	634.04156	804.21997	43.63236	638.14038	14.96721	570.65210	-1021.40265	
3534	35.330	-693.71686	-33.55030	-582.64581	721.34326	-20.62578	-497.91290	-765.23175	34.57871	634.45209	804.87665	42.30497	638.30048	15.94842	572.75586	-1019.84448	
3535	35.340	-692.43988	-32.49338	-582.31299	722.04095	-19.50985	-498.08447	-764.19873	33.41153	634.81970	806.28473	41.08698	638.56110	17.16319	574.68933	-1018.45569	
3536	35.350	-691.43896	-31.02059	-582.06482	723.48334	-18.46568	-497.60425	-762.75293	31.99546	635.20587	807.31604	39.99759	639.09033	18.35258	576.87030	-1016.76074	
